<?xml version="1.0" encoding="UTF-8" standalone="no"?>
<!DOCTYPE svg PUBLIC "-//W3C//DTD SVG 1.1//EN" "http://www.w3.org/Graphics/SVG/1.1/DTD/svg11.dtd">
<svg width="100%" height="100%" viewBox="0 0 1200 1200" version="1.1" xmlns="http://www.w3.org/2000/svg" xmlns:xlink="http://www.w3.org/1999/xlink" xml:space="preserve" xmlns:serif="http://www.serif.com/" style="fill-rule:evenodd;clip-rule:evenodd;stroke-linejoin:round;stroke-miterlimit:2;">
    <g transform="matrix(6.12323e-17,-1,1,6.12323e-17,-21.3306,1200)">
        <g>
            <path d="M599.97,950.52C594.63,950.52 589.298,948.708 584.947,945.071C493.603,868.778 439.067,745.221 439.067,614.561C439.067,483.961 493.598,360.411 584.937,284.061C593.632,276.787 606.292,276.787 614.996,284.057C706.375,360.393 760.936,483.947 760.936,614.567C760.936,745.227 706.377,868.777 614.996,945.077C610.648,948.71 605.308,950.526 599.973,950.526L599.97,950.52ZM599.978,333.43C528.244,401.621 485.938,505.13 485.938,614.57C485.938,724.07 528.239,827.57 599.968,895.71C671.73,827.565 714.058,724.06 714.058,614.57C714.058,505.11 671.738,401.61 599.978,333.43Z" style="fill:rgb(101,163,13);fill-rule:nonzero;"/>
            <path d="M599.96,950.52C591.155,950.52 582.901,945.54 578.909,937.375C574.171,927.68 576.663,916.008 584.944,909.094C665.788,841.594 714.054,731.494 714.054,614.564C714.054,566.443 706.195,519.794 690.691,475.924C687.582,467.127 689.992,457.319 696.82,450.959C751.617,399.955 816.6,365.17 884.76,350.359C895.838,347.957 907.045,353.816 911.389,364.285C957.002,474.265 948.057,609.035 887.455,724.785C826.971,840.535 721.355,924.725 604.945,949.995C603.281,950.347 601.617,950.522 599.965,950.522L599.96,950.52ZM739.89,475.29C753.859,519.759 760.933,566.536 760.933,614.56C760.933,709.068 732.386,799.86 682.007,871.74C749.327,835.549 807.567,776.428 845.917,703.05C896.706,606.038 907.198,494.71 875.194,401.05C826.823,414.816 780.604,440.163 739.894,475.292L739.89,475.29Z" style="fill:rgb(101,163,13);fill-rule:nonzero;"/>
            <path d="M698.44,964.05L698.432,964.05C662.315,964.05 627.022,959.194 593.532,949.616C583.2,946.663 576.204,937.061 576.548,926.323C576.896,915.585 584.501,906.456 595.001,904.178C697.981,881.826 791.791,806.639 845.921,703.058C867.562,661.742 882.026,618.148 888.921,573.468C890.331,564.331 896.976,556.878 905.89,554.433C943.195,544.21 981.132,539.027 1018.65,539.027C1054.85,539.027 1090.13,543.855 1123.53,553.375C1134.44,556.484 1141.55,566.953 1140.43,578.238C1128.61,696.758 1057.03,811.308 948.948,884.658C873.608,935.857 784.638,964.056 698.448,964.056L698.44,964.05ZM696.21,917.167C696.948,917.171 697.69,917.175 698.428,917.175C775.326,917.179 854.938,891.859 922.608,845.878C1013.19,784.405 1075.06,691.248 1091.14,593.558C1067.78,588.476 1043.48,585.909 1018.64,585.909C990.08,585.909 961.201,589.304 932.591,596.007C924.154,640.405 909.001,683.659 887.45,724.797C843.305,809.281 775.11,876.957 696.21,917.177L696.21,917.167Z" style="fill:rgb(101,163,13);fill-rule:nonzero;"/>
            <path d="M599.98,950.52C598.332,950.52 596.664,950.348 595,949.985C478.65,924.723 373.039,840.525 312.49,724.775C251.939,609.005 243.013,474.235 288.619,364.275C292.958,353.806 304.174,347.947 315.248,350.349C383.4,365.161 448.388,399.951 503.178,450.949C510.01,457.308 512.416,467.113 509.31,475.914C493.806,519.781 485.947,566.426 485.947,614.554C485.947,731.044 533.849,840.774 614.127,908.354C619.795,912.631 623.452,919.424 623.452,927.069C623.452,939.698 613.467,949.991 600.96,950.487C600.635,950.51 600.307,950.518 599.975,950.518L599.98,950.52ZM324.81,401.06C292.81,494.701 303.283,606.04 354.025,703.05C392.408,776.425 450.673,835.55 517.975,871.75C467.612,799.863 439.077,709.07 439.077,614.57C439.077,566.535 446.151,519.761 460.12,475.3C419.405,440.163 373.186,414.82 324.82,401.062L324.81,401.06Z" style="fill:rgb(101,163,13);fill-rule:nonzero;"/>
            <path d="M501.54,964.05C415.325,964.05 326.34,935.851 250.99,884.652C142.95,811.289 71.4,696.742 59.58,578.242C58.455,566.961 65.568,556.488 76.471,553.379C109.838,543.856 145.116,539.031 181.311,539.031C218.827,539.031 256.776,544.215 294.111,554.433C303.025,556.874 309.677,564.328 311.084,573.468C317.971,618.109 332.416,661.71 354.025,703.058C408.209,806.638 502.015,881.828 604.945,904.178C615.441,906.459 623.047,915.584 623.398,926.323C623.746,937.061 616.75,946.663 606.421,949.616C572.937,959.194 537.651,964.05 501.541,964.05L501.54,964.05ZM108.86,593.55C124.942,691.234 186.786,784.4 277.32,845.87C345.644,892.3 426.2,917.585 503.76,917.163C424.889,876.948 356.68,809.273 312.47,724.773C290.954,683.597 275.822,640.347 267.396,596.003C238.759,589.296 209.865,585.901 181.302,585.901C156.474,585.901 132.185,588.467 108.853,593.549L108.86,593.55Z" style="fill:rgb(101,163,13);fill-rule:nonzero;"/>
        </g>
    </g>
</svg>
